<?xml version="1.0" encoding="UTF-8"?>
<!DOCTYPE svg PUBLIC "-//W3C//DTD SVG 1.1//EN" "http://www.w3.org/Graphics/SVG/1.1/DTD/svg11.dtd">
<svg xmlns="http://www.w3.org/2000/svg" version="1.1" width="500px" height="500px" style="shape-rendering:geometricPrecision; text-rendering:geometricPrecision; image-rendering:optimizeQuality; fill-rule:evenodd; clip-rule:evenodd" xmlns:xlink="http://www.w3.org/1999/xlink">
<g><path style="opacity:0.004" fill="#fefffe" d="M 467.5,28.5 C 468.833,29.1667 468.833,29.1667 467.5,28.5 Z"/></g>
<g><path style="opacity:0.004" fill="#fefffe" d="M 356.5,35.5 C 357.833,36.1667 357.833,36.1667 356.5,35.5 Z"/></g>
<g><path style="opacity:0.004" fill="#fefffe" d="M 361.5,40.5 C 362.833,41.1667 362.833,41.1667 361.5,40.5 Z"/></g>
<g><path style="opacity:0.004" fill="#fefffe" d="M 44.5,41.5 C 45.8333,42.1667 45.8333,42.1667 44.5,41.5 Z"/></g>
<g><path style="opacity:0.004" fill="#fefffe" d="M 84.5,54.5 C 85.8333,55.1667 85.8333,55.1667 84.5,54.5 Z"/></g>
<g><path style="opacity:0.004" fill="#fefffe" d="M 70.5,55.5 C 71.8333,56.1667 71.8333,56.1667 70.5,55.5 Z"/></g>
<g><path style="opacity:0.004" fill="#fefffe" d="M 435.5,58.5 C 436.833,59.1667 436.833,59.1667 435.5,58.5 Z"/></g>
<g><path style="opacity:0.004" fill="#fefffe" d="M 253.5,70.5 C 254.833,71.1667 254.833,71.1667 253.5,70.5 Z"/></g>
<g><path style="opacity:0.004" fill="#fefffe" d="M 329.5,71.5 C 330.833,72.1667 330.833,72.1667 329.5,71.5 Z"/></g>
<g><path style="opacity:0.004" fill="#fefffe" d="M 305.5,78.5 C 306.833,79.1667 306.833,79.1667 305.5,78.5 Z"/></g>
<g><path style="opacity:0.004" fill="#fefffe" d="M 175.5,80.5 C 176.833,81.1667 176.833,81.1667 175.5,80.5 Z"/></g>
<g><path style="opacity:0.004" fill="#fefffe" d="M 87.5,81.5 C 88.8333,82.1667 88.8333,82.1667 87.5,81.5 Z"/></g>
<g><path style="opacity:0.004" fill="#fefffe" d="M 229.5,84.5 C 230.833,85.1667 230.833,85.1667 229.5,84.5 Z"/></g>
<g><path style="opacity:0.004" fill="#fefffe" d="M 223.5,89.5 C 224.833,90.1667 224.833,90.1667 223.5,89.5 Z"/></g>
<g><path style="opacity:0.004" fill="#fefffe" d="M 103.5,92.5 C 104.833,93.1667 104.833,93.1667 103.5,92.5 Z"/></g>
<g><path style="opacity:0.004" fill="#fefffe" d="M 257.5,103.5 C 258.833,104.167 258.833,104.167 257.5,103.5 Z"/></g>
<g><path style="opacity:0.004" fill="#fefffe" d="M 87.5,110.5 C 88.8333,111.167 88.8333,111.167 87.5,110.5 Z"/></g>
<g><path style="opacity:0.004" fill="#fefffe" d="M 174.5,110.5 C 175.833,111.167 175.833,111.167 174.5,110.5 Z"/></g>
<g><path style="opacity:0.004" fill="#fefffe" d="M 410.5,113.5 C 411.833,114.167 411.833,114.167 410.5,113.5 Z"/></g>
<g><path style="opacity:0.004" fill="#fefffe" d="M 479.5,115.5 C 480.833,116.167 480.833,116.167 479.5,115.5 Z"/></g>
<g><path style="opacity:0.004" fill="#fefffe" d="M 271.5,117.5 C 272.833,118.167 272.833,118.167 271.5,117.5 Z"/></g>
<g><path style="opacity:0.004" fill="#fefffe" d="M 336.5,118.5 C 337.833,119.167 337.833,119.167 336.5,118.5 Z"/></g>
<g><path style="opacity:0.004" fill="#fefffe" d="M 371.5,118.5 C 372.833,119.167 372.833,119.167 371.5,118.5 Z"/></g>
<g><path style="opacity:0.004" fill="#fefffe" d="M 203.5,119.5 C 204.833,120.167 204.833,120.167 203.5,119.5 Z"/></g>
<g><path style="opacity:0.004" fill="#fefffe" d="M 5.5,120.5 C 6.83333,121.167 6.83333,121.167 5.5,120.5 Z"/></g>
<g><path style="opacity:0.006" fill="#fefffe" d="M 242.5,121.5 C 246.981,120.352 251.648,120.185 256.5,121C 251.89,122.827 247.223,122.993 242.5,121.5 Z"/></g>
<g><path style="opacity:0.009" fill="#fefffe" d="M 237.5,125.5 C 236.5,125.5 235.5,125.5 234.5,125.5C 232.946,124.105 233.279,123.439 235.5,123.5C 236.713,123.747 237.38,124.414 237.5,125.5 Z"/></g>
<g><path style="opacity:0.996" fill="#9c9af0" d="M 325.5,147.5 C 327.833,150.5 330.5,153.167 333.5,155.5C 337.493,164.828 342.493,173.495 348.5,181.5C 350.855,185.855 354.188,189.188 358.5,191.5C 358.81,193.144 359.81,194.144 361.5,194.5C 361.833,194.5 362.167,194.5 362.5,194.5C 363.5,195.5 364.5,196.5 365.5,197.5C 365.5,197.833 365.5,198.167 365.5,198.5C 365.833,199.5 366.5,200.167 367.5,200.5C 367.738,202.404 368.738,203.738 370.5,204.5C 370.992,206.819 371.992,208.819 373.5,210.5C 374.669,217.483 374.669,224.483 373.5,231.5C 371.433,236.679 370.433,242.179 370.5,248C 370.962,255.937 372.128,263.77 374,271.5C 375.232,278.839 374.232,285.839 371,292.5C 368.158,296.197 365.325,299.863 362.5,303.5C 356.812,307.188 352.145,311.855 348.5,317.5C 343.574,323.007 339.908,329.34 337.5,336.5C 337.5,337.167 337.5,337.833 337.5,338.5C 337.167,338.5 336.833,338.5 336.5,338.5C 333.238,343.102 329.572,347.435 325.5,351.5C 321.954,352.959 318.288,354.126 314.5,355C 305.09,356.235 295.757,357.902 286.5,360C 277.833,364 269.167,368 260.5,372C 254.569,373.471 248.569,373.804 242.5,373C 232.277,369.223 222.277,364.889 212.5,360C 205.603,358.282 198.603,357.282 191.5,357C 181.629,356.051 173.462,351.884 167,344.5C 162.492,337.487 158.492,330.153 155,322.5C 153.951,320.382 152.451,318.716 150.5,317.5C 147.188,312.188 142.855,307.855 137.5,304.5C 137.167,304.5 136.833,304.5 136.5,304.5C 136.5,304.167 136.5,303.833 136.5,303.5C 136.144,301.81 135.144,300.81 133.5,300.5C 131.189,297.337 129.022,294.003 127,290.5C 125.336,286.844 124.503,283.01 124.5,279C 126.093,269.035 127.426,259.035 128.5,249C 127.491,239.439 126.158,229.939 124.5,220.5C 124.724,217.145 125.057,213.812 125.5,210.5C 127.008,208.819 128.008,206.819 128.5,204.5C 130.262,203.738 131.262,202.404 131.5,200.5C 133.5,199.167 135.167,197.5 136.5,195.5C 137.833,194.833 138.833,193.833 139.5,192.5C 143.422,190.085 146.922,187.085 150,183.5C 155.093,176.32 159.426,168.653 163,160.5C 165.619,156.05 168.786,152.05 172.5,148.5C 174.434,147.89 176.101,146.89 177.5,145.5C 189.824,143 202.157,140.5 214.5,138C 221.173,135.33 227.506,132.163 233.5,128.5C 240.937,125.777 248.604,124.944 256.5,126C 267.823,130.661 279.157,135.327 290.5,140C 302.469,141.284 314.136,143.784 325.5,147.5 Z"/></g>
<g><path style="opacity:0.05" fill="#f6f6fe" d="M 255.5,123.5 C 256.641,124.339 257.974,125.006 259.5,125.5C 260.522,125.145 261.189,124.478 261.5,123.5C 262.873,123.343 264.207,123.51 265.5,124C 265.167,124.333 264.833,124.667 264.5,125C 266.058,125.21 267.391,125.71 268.5,126.5C 264.711,126.737 264.711,127.404 268.5,128.5C 269.209,129.404 270.209,129.737 271.5,129.5C 272.519,131.101 274.019,132.101 276,132.5C 277.789,131.591 279.623,131.424 281.5,132C 281.167,132.333 280.833,132.667 280.5,133C 282.058,133.21 283.391,133.71 284.5,134.5C 280.861,135.268 281.194,135.934 285.5,136.5C 289.533,138.322 293.867,139.322 298.5,139.5C 302.167,140.833 305.833,140.833 309.5,139.5C 312.385,139.194 315.052,139.527 317.5,140.5C 320.014,140.754 322.348,141.587 324.5,143C 323.833,143.667 323.167,144.333 322.5,145C 323.942,145.377 324.942,146.21 325.5,147.5C 314.136,143.784 302.469,141.284 290.5,140C 279.157,135.327 267.823,130.661 256.5,126C 248.604,124.944 240.937,125.777 233.5,128.5C 233.179,126.952 232.179,126.285 230.5,126.5C 231.568,125.566 232.901,125.232 234.5,125.5C 235.5,126.833 236.5,126.833 237.5,125.5C 243.346,123.845 249.346,123.178 255.5,123.5 Z M 255.5,123.5 C 257.5,123.5 259.5,123.5 261.5,123.5C 261.189,124.478 260.522,125.145 259.5,125.5C 257.974,125.006 256.641,124.339 255.5,123.5 Z M 317.5,140.5 C 315.427,142.94 313.094,143.106 310.5,141C 312.81,140.503 315.143,140.337 317.5,140.5 Z"/></g>
<g><path style="opacity:0.008" fill="#fefffe" d="M 230.5,126.5 C 230.5,127.167 230.5,127.833 230.5,128.5C 226.5,127.833 226.5,127.167 230.5,126.5 Z"/></g>
<g><path style="opacity:0.007" fill="#fefffe" d="M 268.5,126.5 C 272.289,126.737 272.289,127.404 268.5,128.5C 268.5,127.833 268.5,127.167 268.5,126.5 Z"/></g>
<g><path style="opacity:0.004" fill="#fefffe" d="M 450.5,127.5 C 451.833,128.167 451.833,128.167 450.5,127.5 Z"/></g>
<g><path style="opacity:0.013" fill="#fefffe" d="M 271.5,129.5 C 272.251,128.427 273.251,128.26 274.5,129C 273.552,129.483 272.552,129.649 271.5,129.5 Z"/></g>
<g><path style="opacity:0.042" fill="#f9f9fe" d="M 230.5,128.5 C 231.5,128.5 232.5,128.5 233.5,128.5C 227.506,132.163 221.173,135.33 214.5,138C 202.157,140.5 189.824,143 177.5,145.5C 176.942,144.21 175.942,143.377 174.5,143C 175.448,142.517 176.448,142.351 177.5,142.5C 178.833,143.833 180.167,143.833 181.5,142.5C 190.635,141.37 190.635,140.703 181.5,140.5C 183.969,139.683 186.635,139.183 189.5,139C 189.167,138.667 188.833,138.333 188.5,138C 193.673,137.56 198.839,137.06 204,136.5C 205.707,136.508 207.207,136.842 208.5,137.5C 210.415,137.784 212.081,137.451 213.5,136.5C 217.806,135.934 218.139,135.268 214.5,134.5C 215.568,133.566 216.901,133.232 218.5,133.5C 218.389,132.883 218.056,132.383 217.5,132C 219.377,131.424 221.211,131.591 223,132.5C 225.674,131.286 228.174,129.952 230.5,128.5 Z M 218.5,133.5 C 219.363,132.537 220.03,132.537 220.5,133.5C 219.743,134.773 219.077,134.773 218.5,133.5 Z M 208.5,137.5 C 206.143,139.557 203.476,139.89 200.5,138.5C 203.086,137.52 205.753,137.187 208.5,137.5 Z"/></g>
<g><path style="opacity:0.008" fill="#fefffe" d="M 214.5,134.5 C 214.167,135.167 213.833,135.833 213.5,136.5C 205.667,135.053 206,134.387 214.5,134.5 Z"/></g>
<g><path style="opacity:0.007" fill="#fefffe" d="M 284.5,134.5 C 293,134.387 293.333,135.053 285.5,136.5C 285.167,135.833 284.833,135.167 284.5,134.5 Z"/></g>
<g><path style="opacity:0.004" fill="#fefffe" d="M 407.5,134.5 C 408.833,135.167 408.833,135.167 407.5,134.5 Z"/></g>
<g><path style="opacity:0.009" fill="#fefffe" d="M 309.5,139.5 C 305.833,139.5 302.167,139.5 298.5,139.5C 300.048,138.206 302.048,137.539 304.5,137.5C 306.5,137.667 308.5,137.833 310.5,138C 309.944,138.383 309.611,138.883 309.5,139.5 Z"/></g>
<g><path style="opacity:0.004" fill="#fefffe" d="M 404.5,138.5 C 405.833,139.167 405.833,139.167 404.5,138.5 Z"/></g>
<g><path style="opacity:0.004" fill="#fefffe" d="M 338.5,139.5 C 339.833,140.167 339.833,140.167 338.5,139.5 Z"/></g>
<g><path style="opacity:0.01" fill="#fefffe" d="M 181.5,140.5 C 181.5,141.167 181.5,141.833 181.5,142.5C 180.167,142.5 178.833,142.5 177.5,142.5C 178.287,140.896 179.62,140.229 181.5,140.5 Z"/></g>
<g><path style="opacity:0.004" fill="#fefffe" d="M 398.5,142.5 C 399.833,143.167 399.833,143.167 398.5,142.5 Z"/></g>
<g><path style="opacity:0.004" fill="#fefffe" d="M 442.5,143.5 C 443.833,144.167 443.833,144.167 442.5,143.5 Z"/></g>
<g><path style="opacity:0.009" fill="#fefffe" d="M 172.5,147.5 C 171.833,147.5 171.167,147.5 170.5,147.5C 171.167,144.833 171.833,144.833 172.5,147.5 Z"/></g>
<g><path style="opacity:0.231" fill="#f3f3fd" d="M 177.5,145.5 C 176.101,146.89 174.434,147.89 172.5,148.5C 172.5,148.167 172.5,147.833 172.5,147.5C 173.82,146.058 175.486,145.392 177.5,145.5 Z"/></g>
<g><path style="opacity:0.043" fill="#f8f7fe" d="M 330.5,148.5 C 329.167,148.833 329.167,149.167 330.5,149.5C 332.297,150.393 333.63,151.726 334.5,153.5C 333.662,153.842 333.328,154.508 333.5,155.5C 330.5,153.167 327.833,150.5 325.5,147.5C 326.151,146.909 326.818,146.243 327.5,145.5C 328.548,146.548 329.548,147.548 330.5,148.5 Z"/></g>
<g><path style="opacity:0.004" fill="#fefffe" d="M 330.5,148.5 C 331.833,149.167 331.833,149.167 330.5,148.5 Z"/></g>
<g><path style="opacity:0.004" fill="#fefffe" d="M 119.5,153.5 C 120.833,154.167 120.833,154.167 119.5,153.5 Z"/></g>
<g><path style="opacity:0.008" fill="#fefffe" d="M 164.5,153.5 C 164.5,154.167 164.5,154.833 164.5,155.5C 161.833,154.833 161.833,154.167 164.5,153.5 Z"/></g>
<g><path style="opacity:0.009" fill="#fefffe" d="M 334.5,153.5 C 337.167,154.167 337.167,154.833 334.5,155.5C 334.5,154.833 334.5,154.167 334.5,153.5 Z"/></g>
<g><path style="opacity:0.004" fill="#fefffe" d="M 434.5,153.5 C 435.833,154.167 435.833,154.167 434.5,153.5 Z"/></g>
<g><path style="opacity:0.004" fill="#fefffe" d="M 351.5,161.5 C 352.833,162.167 352.833,162.167 351.5,161.5 Z"/></g>
<g><path style="opacity:0.004" fill="#fefffe" d="M 428.5,161.5 C 429.833,162.167 429.833,162.167 428.5,161.5 Z"/></g>
<g><path style="opacity:0.042" fill="#faf9fe" d="M 333.5,155.5 C 333.833,155.5 334.167,155.5 334.5,155.5C 335.504,156.683 336.338,158.016 337,159.5C 338.908,156.668 339.741,157.001 339.5,160.5C 340.705,161.672 340.705,163.005 339.5,164.5C 340.355,165.293 341.189,164.96 342,163.5C 342.483,164.448 342.649,165.448 342.5,166.5C 341.167,167.5 341.167,168.5 342.5,169.5C 342.775,171.842 343.608,171.842 345,169.5C 345.44,171.076 346.273,172.41 347.5,173.5C 345.121,175.105 345.121,176.438 347.5,177.5C 347.775,179.842 348.608,179.842 350,177.5C 350.791,178.745 351.291,180.078 351.5,181.5C 351.167,181.5 350.833,181.5 350.5,181.5C 349.833,180.167 349.167,180.167 348.5,181.5C 342.493,173.495 337.493,164.828 333.5,155.5 Z M 339.5,160.5 C 339.489,163.001 338.822,163.168 337.5,161C 338.094,160.536 338.761,160.369 339.5,160.5 Z"/></g>
<g><path style="opacity:0.014" fill="#fefffe" d="M 342.5,166.5 C 343.833,167.5 343.833,168.5 342.5,169.5C 342.5,168.5 342.5,167.5 342.5,166.5 Z"/></g>
<g><path style="opacity:0.004" fill="#fefffe" d="M 22.5,167.5 C 23.8333,168.167 23.8333,168.167 22.5,167.5 Z"/></g>
<g><path style="opacity:0.064" fill="#f9f9fe" d="M 170.5,147.5 C 170.842,148.338 171.508,148.672 172.5,148.5C 168.786,152.05 165.619,156.05 163,160.5C 159.426,168.653 155.093,176.32 150,183.5C 146.922,187.085 143.422,190.085 139.5,192.5C 138.833,193.833 137.833,194.833 136.5,195.5C 135.909,194.849 135.243,194.182 134.5,193.5C 136.185,192.047 137.851,190.714 139.5,189.5C 140.167,190.833 140.833,190.833 141.5,189.5C 142.167,189.5 142.5,189.167 142.5,188.5C 143.5,188.167 144.167,187.5 144.5,186.5C 145.167,186.5 145.5,186.167 145.5,185.5C 146.167,185.5 146.5,185.167 146.5,184.5C 147.167,184.5 147.5,184.167 147.5,183.5C 148.833,182.833 148.833,182.167 147.5,181.5C 147.328,180.508 147.662,179.842 148.5,179.5C 149.167,180.833 149.833,180.833 150.5,179.5C 151.833,178.833 151.833,178.167 150.5,177.5C 150.263,176.209 150.596,175.209 151.5,174.5C 152.167,177.167 152.833,177.167 153.5,174.5C 154.833,173.833 154.833,173.167 153.5,172.5C 153.225,167.78 154.059,167.446 156,171.5C 155.411,168.522 155.744,165.522 157,162.5C 157.419,163.672 158.085,164.672 159,165.5C 159.273,163.671 160.107,162.171 161.5,161C 159.842,160.275 159.342,159.108 160,157.5C 160.667,158.167 161.333,158.833 162,159.5C 162.662,158.016 163.496,156.683 164.5,155.5C 165.833,154.833 165.833,154.167 164.5,153.5C 165.693,151.946 166.86,150.279 168,148.5C 168.671,147.748 169.504,147.414 170.5,147.5 Z M 151.5,174.5 C 152.167,174.5 152.833,174.5 153.5,174.5C 152.833,177.167 152.167,177.167 151.5,174.5 Z"/></g>
<g><path style="opacity:0.004" fill="#fefffe" d="M 43.5,170.5 C 44.8333,171.167 44.8333,171.167 43.5,170.5 Z"/></g>
<g><path style="opacity:0.004" fill="#fefffe" d="M 94.5,171.5 C 95.8333,172.167 95.8333,172.167 94.5,171.5 Z"/></g>
<g><path style="opacity:0.008" fill="#fefffe" d="M 153.5,172.5 C 153.5,173.167 153.5,173.833 153.5,174.5C 152.833,174.5 152.167,174.5 151.5,174.5C 151.131,172.007 151.797,171.34 153.5,172.5 Z"/></g>
<g><path style="opacity:0.004" fill="#fefffe" d="M 449.5,173.5 C 450.833,174.167 450.833,174.167 449.5,173.5 Z"/></g>
<g><path style="opacity:0.016" fill="#fefffe" d="M 347.5,177.5 C 347.369,176.761 347.536,176.094 348,175.5C 348.692,176.437 348.525,177.103 347.5,177.5 Z"/></g>
<g><path style="opacity:0.007" fill="#fefffe" d="M 150.5,177.5 C 150.5,178.167 150.5,178.833 150.5,179.5C 149.833,179.5 149.167,179.5 148.5,179.5C 148.131,177.007 148.797,176.34 150.5,177.5 Z"/></g>
<g><path style="opacity:0.004" fill="#fefffe" d="M 390.5,179.5 C 391.833,180.167 391.833,180.167 390.5,179.5 Z"/></g>
<g><path style="opacity:0.004" fill="#fefffe" d="M 447.5,179.5 C 448.833,180.167 448.833,180.167 447.5,179.5 Z"/></g>
<g><path style="opacity:0.01" fill="#fefffe" d="M 147.5,181.5 C 147.5,182.167 147.5,182.833 147.5,183.5C 146.833,183.5 146.5,183.833 146.5,184.5C 145.833,184.5 145.5,184.833 145.5,185.5C 144.833,185.5 144.5,185.833 144.5,186.5C 143.833,186.5 143.167,186.5 142.5,186.5C 143.833,184.5 145.5,182.833 147.5,181.5 Z"/></g>
<g><path style="opacity:0.11" fill="#eeedfc" d="M 348.5,181.5 C 349.167,181.5 349.833,181.5 350.5,181.5C 350.328,182.492 350.662,183.158 351.5,183.5C 351.833,184.5 352.5,185.167 353.5,185.5C 353.5,186.167 353.833,186.5 354.5,186.5C 354.5,187.167 354.833,187.5 355.5,187.5C 355.5,188.167 355.833,188.5 356.5,188.5C 356.5,189.167 356.833,189.5 357.5,189.5C 357.833,190.167 358.167,190.833 358.5,191.5C 354.188,189.188 350.855,185.855 348.5,181.5 Z"/></g>
<g><path style="opacity:0.008" fill="#fefffe" d="M 351.5,181.5 C 352.833,181.5 353.5,182.167 353.5,183.5C 352.833,183.5 352.167,183.5 351.5,183.5C 351.5,182.833 351.5,182.167 351.5,181.5 Z"/></g>
<g><path style="opacity:0.007" fill="#fefffe" d="M 353.5,183.5 C 355.954,185.103 357.954,187.103 359.5,189.5C 358.833,189.5 358.167,189.5 357.5,189.5C 356.833,189.5 356.5,189.167 356.5,188.5C 355.833,188.5 355.5,188.167 355.5,187.5C 354.833,187.5 354.5,187.167 354.5,186.5C 353.833,186.5 353.5,186.167 353.5,185.5C 353.5,184.833 353.5,184.167 353.5,183.5 Z"/></g>
<g><path style="opacity:0.004" fill="#fefffe" d="M 56.5,185.5 C 57.8333,186.167 57.8333,186.167 56.5,185.5 Z"/></g>
<g><path style="opacity:0.01" fill="#fefffe" d="M 142.5,186.5 C 142.5,187.167 142.5,187.833 142.5,188.5C 141.833,188.5 141.5,188.833 141.5,189.5C 140.833,189.5 140.167,189.5 139.5,189.5C 139.81,187.856 140.81,186.856 142.5,186.5 Z"/></g>
<g><path style="opacity:0.004" fill="#fefffe" d="M 382.5,187.5 C 383.833,188.167 383.833,188.167 382.5,187.5 Z"/></g>
<g><path style="opacity:0.996" fill="#2e2e30" d="M 249.5,188.5 C 273.894,186.097 288.728,196.764 294,220.5C 296.754,247.084 290.754,271.417 276,293.5C 264.496,307.668 249.663,313.835 231.5,312C 218.515,309.014 210.015,301.181 206,288.5C 201.265,262.134 211.432,244.3 236.5,235C 255.721,231.723 269.888,238.556 279,255.5C 282.598,243.337 283.264,231.004 281,218.5C 275.646,202.902 264.812,196.735 248.5,200C 241.24,202.761 234.906,206.927 229.5,212.5C 227.517,210.016 225.35,207.683 223,205.5C 222.333,204.833 222.333,204.167 223,203.5C 230.786,196.527 239.619,191.527 249.5,188.5 Z"/></g>
<g><path style="opacity:0.04" fill="#f8f7fe" d="M 359.5,189.5 C 361.144,189.81 362.144,190.81 362.5,192.5C 361.662,192.842 361.328,193.508 361.5,194.5C 359.81,194.144 358.81,193.144 358.5,191.5C 359.338,191.158 359.672,190.492 359.5,189.5 Z"/></g>
<g><path style="opacity:0.009" fill="#fefffe" d="M 362.5,192.5 C 365.167,193.167 365.167,193.833 362.5,194.5C 362.5,193.833 362.5,193.167 362.5,192.5 Z"/></g>
<g><path style="opacity:0.067" fill="#fbfbfe" d="M 136.5,195.5 C 135.167,197.5 133.5,199.167 131.5,200.5C 131.262,202.404 130.262,203.738 128.5,204.5C 128.5,203.833 128.5,203.167 128.5,202.5C 129.833,201.833 129.833,201.167 128.5,200.5C 129.714,198.851 131.047,197.185 132.5,195.5C 133.726,196.363 135.06,196.363 136.5,195.5 Z"/></g>
<g><path style="opacity:0.009" fill="#fefffe" d="M 367.5,197.5 C 366.833,197.5 366.167,197.5 365.5,197.5C 366.167,194.833 366.833,194.833 367.5,197.5 Z"/></g>
<g><path style="opacity:0.039" fill="#fefffe" d="M 367.5,197.5 C 368.643,197.908 369.643,198.575 370.5,199.5C 369.528,199.593 368.528,199.926 367.5,200.5C 366.5,200.167 365.833,199.5 365.5,198.5C 366.492,198.672 367.158,198.338 367.5,197.5 Z"/></g>
<g><path style="opacity:0.006" fill="#fefffe" d="M 128.5,200.5 C 128.5,201.167 128.5,201.833 128.5,202.5C 127.833,202.5 127.167,202.5 126.5,202.5C 126.5,201.167 127.167,200.5 128.5,200.5 Z"/></g>
<g><path style="opacity:0.057" fill="#fafafe" d="M 126.5,202.5 C 126.5,203.833 127.167,204.5 128.5,204.5C 128.008,206.819 127.008,208.819 125.5,210.5C 125.5,209.5 125.5,208.5 125.5,207.5C 126.833,206.833 126.833,206.167 125.5,205.5C 125.263,204.209 125.596,203.209 126.5,202.5 Z"/></g>
<g><path style="opacity:0.231" fill="#f2f2fe" d="M 367.5,200.5 C 369.068,202.931 370.568,202.931 372,200.5C 372.3,202.066 371.8,203.399 370.5,204.5C 368.738,203.738 367.738,202.404 367.5,200.5 Z"/></g>
<g><path style="opacity:0.008" fill="#fefffe" d="M 125.5,205.5 C 125.5,206.167 125.5,206.833 125.5,207.5C 123.775,207.157 123.275,206.157 124,204.5C 124.383,205.056 124.883,205.389 125.5,205.5 Z"/></g>
<g><path style="opacity:0.023" fill="#fbfbfe" d="M 370.5,204.5 C 371.79,205.058 372.623,206.058 373,207.5C 374.516,204.949 375.349,205.282 375.5,208.5C 374.167,208.5 373.5,209.167 373.5,210.5C 371.992,208.819 370.992,206.819 370.5,204.5 Z"/></g>
<g><path style="opacity:0.033" fill="#fdfdfe" d="M 375.5,208.5 C 375.735,218.146 375.735,227.813 375.5,237.5C 375.665,234.482 375.498,231.482 375,228.5C 374.768,229.737 374.268,230.737 373.5,231.5C 374.669,224.483 374.669,217.483 373.5,210.5C 374.222,210.918 374.722,211.584 375,212.5C 375.49,211.207 375.657,209.873 375.5,208.5 Z"/></g>
<g><path style="opacity:0.068" fill="#fafafe" d="M 125.5,210.5 C 125.057,213.812 124.724,217.145 124.5,220.5C 126.158,229.939 127.491,239.439 128.5,249C 127.426,259.035 126.093,269.035 124.5,279C 124.503,283.01 125.336,286.844 127,290.5C 129.022,294.003 131.189,297.337 133.5,300.5C 132.508,300.328 131.842,300.662 131.5,301.5C 130.357,301.092 129.357,300.425 128.5,299.5C 129.83,296.151 129.33,295.818 127,298.5C 126.536,297.906 126.369,297.239 126.5,296.5C 125.905,294.373 124.905,293.207 123.5,293C 122.34,291.003 122.34,289.169 123.5,287.5C 123.5,281.5 123.5,275.5 123.5,269.5C 123.644,257.999 123.311,246.333 122.5,234.5C 123.137,227.177 123.637,219.843 124,212.5C 124.278,211.584 124.778,210.918 125.5,210.5 Z M 123.5,230.5 C 125.281,233.183 125.781,236.183 125,239.5C 123.608,236.722 123.108,233.722 123.5,230.5 Z M 125.5,259.5 C 125.678,263.122 125.011,266.456 123.5,269.5C 123.335,266.482 123.502,263.482 124,260.5C 124.383,259.944 124.883,259.611 125.5,259.5 Z M 123.5,287.5 C 125.332,288.14 125.665,289.14 124.5,290.5C 123.614,289.675 123.281,288.675 123.5,287.5 Z M 126.5,296.5 C 126.517,294.972 127.184,294.472 128.5,295C 127.956,295.717 127.289,296.217 126.5,296.5 Z"/></g>
<g><path style="opacity:0.004" fill="#fefffe" d="M 26.5,211.5 C 27.8333,212.167 27.8333,212.167 26.5,211.5 Z"/></g>
<g><path style="opacity:0.01" fill="#fefffe" d="M 120.5,211.5 C 121.222,211.918 121.722,212.584 122,213.5C 122.861,219.585 122.527,225.585 121,231.5C 120.5,224.842 120.334,218.175 120.5,211.5 Z"/></g>
<g><path style="opacity:0.007" fill="#fefffe" d="M 377.5,212.5 C 378.651,217.65 378.817,222.984 378,228.5C 376.23,223.205 376.063,217.871 377.5,212.5 Z"/></g>
<g><path style="opacity:0.004" fill="#fefffe" d="M 459.5,232.5 C 460.833,233.167 460.833,233.167 459.5,232.5 Z"/></g>
<g><path style="opacity:0.028" fill="#f9f9fe" d="M 373.5,231.5 C 373.025,234.082 373.692,236.082 375.5,237.5C 375.806,248.684 375.806,259.684 375.5,270.5C 375.95,277.661 375.283,284.661 373.5,291.5C 372.167,292.167 372.167,292.833 373.5,293.5C 373.631,294.239 373.464,294.906 373,295.5C 369.89,294.327 369.723,294.827 372.5,297C 370.637,299.295 368.637,301.462 366.5,303.5C 365.274,302.637 363.94,302.637 362.5,303.5C 365.325,299.863 368.158,296.197 371,292.5C 374.232,285.839 375.232,278.839 374,271.5C 372.128,263.77 370.962,255.937 370.5,248C 370.433,242.179 371.433,236.679 373.5,231.5 Z M 375.5,270.5 C 373.826,267.446 373.326,264.112 374,260.5C 375.405,263.619 375.905,266.952 375.5,270.5 Z"/></g>
<g><path style="opacity:0.999" fill="#9b99ee" d="M 240.5,244.5 C 255.997,243.662 266.83,250.329 273,264.5C 272.205,278.242 266.039,289.075 254.5,297C 228.408,306.213 215.908,297.046 217,269.5C 220.616,257.054 228.45,248.721 240.5,244.5 Z"/></g>
<g><path style="opacity:0.004" fill="#fefffe" d="M 401.5,256.5 C 402.833,257.167 402.833,257.167 401.5,256.5 Z"/></g>
<g><path style="opacity:0.004" fill="#fefffe" d="M 499.5,267.5 C 499.5,267.833 499.5,268.167 499.5,268.5C 498.83,268.019 498.83,267.685 499.5,267.5 Z"/></g>
<g><path style="opacity:0.011" fill="#fefffe" d="M 120.5,268.5 C 122.03,271.695 122.696,275.195 122.5,279C 122.618,282.027 122.118,284.861 121,287.5C 120.5,281.175 120.334,274.842 120.5,268.5 Z"/></g>
<g><path style="opacity:0.007" fill="#fefffe" d="M 377.5,269.5 C 378.652,274.985 378.818,280.651 378,286.5C 376.213,280.91 376.046,275.244 377.5,269.5 Z"/></g>
<g><path style="opacity:0.004" fill="#fefffe" d="M 430.5,269.5 C 431.833,270.167 431.833,270.167 430.5,269.5 Z"/></g>
<g><path style="opacity:0.004" fill="#fefffe" d="M 82.5,288.5 C 83.8333,289.167 83.8333,289.167 82.5,288.5 Z"/></g>
<g><path style="opacity:0.004" fill="#fefffe" d="M 43.5,290.5 C 44.8333,291.167 44.8333,291.167 43.5,290.5 Z"/></g>
<g><path style="opacity:0.004" fill="#fefffe" d="M 81.5,290.5 C 82.8333,291.167 82.8333,291.167 81.5,290.5 Z"/></g>
<g><path style="opacity:0.006" fill="#fefffe" d="M 373.5,293.5 C 373.5,292.833 373.5,292.167 373.5,291.5C 374.895,289.946 375.561,290.279 375.5,292.5C 375.561,294.721 374.895,295.054 373.5,293.5 Z"/></g>
<g><path style="opacity:0.004" fill="#fefffe" d="M 67.5,293.5 C 68.8333,294.167 68.8333,294.167 67.5,293.5 Z"/></g>
<g><path style="opacity:0.004" fill="#fefffe" d="M 401.5,293.5 C 402.833,294.167 402.833,294.167 401.5,293.5 Z"/></g>
<g><path style="opacity:0.009" fill="#fefffe" d="M 131.5,301.5 C 132.167,301.5 132.833,301.5 133.5,301.5C 132.833,304.167 132.167,304.167 131.5,301.5 Z"/></g>
<g><path style="opacity:0.146" fill="#f2f1fd" d="M 133.5,301.5 C 133.5,301.167 133.5,300.833 133.5,300.5C 135.144,300.81 136.144,301.81 136.5,303.5C 135.222,303.218 134.222,302.551 133.5,301.5 Z"/></g>
<g><path style="opacity:0.011" fill="#fefffe" d="M 136.5,304.5 C 136.5,305.167 136.5,305.833 136.5,306.5C 133.833,305.833 133.833,305.167 136.5,304.5 Z"/></g>
<g><path style="opacity:0.008" fill="#fefffe" d="M 362.5,306.5 C 362.5,306.167 362.5,305.833 362.5,305.5C 363.363,304.537 364.03,304.537 364.5,305.5C 364.043,306.298 363.376,306.631 362.5,306.5 Z"/></g>
<g><path style="opacity:0.004" fill="#fefffe" d="M 471.5,305.5 C 472.833,306.167 472.833,306.167 471.5,305.5 Z"/></g>
<g><path style="opacity:0.004" fill="#fefffe" d="M 34.5,307.5 C 35.8333,308.167 35.8333,308.167 34.5,307.5 Z"/></g>
<g><path style="opacity:0.004" fill="#fefffe" d="M 135.5,308.5 C 136.833,309.167 136.833,309.167 135.5,308.5 Z"/></g>
<g><path style="opacity:0.004" fill="#fefffe" d="M 369.5,308.5 C 370.833,309.167 370.833,309.167 369.5,308.5 Z"/></g>
<g><path style="opacity:0.063" fill="#f8f7fe" d="M 362.5,303.5 C 362.5,304.167 362.5,304.833 362.5,305.5C 361.167,305.833 361.167,306.167 362.5,306.5C 362.144,308.19 361.144,309.19 359.5,309.5C 358.833,308.167 358.167,308.167 357.5,309.5C 356.5,309.833 355.833,310.5 355.5,311.5C 354.833,311.5 354.5,311.833 354.5,312.5C 353.833,312.5 353.5,312.833 353.5,313.5C 352.833,313.5 352.5,313.833 352.5,314.5C 351.833,314.5 351.5,314.833 351.5,315.5C 350.833,315.5 350.5,315.833 350.5,316.5C 349.833,316.833 349.167,317.167 348.5,317.5C 352.145,311.855 356.812,307.188 362.5,303.5 Z"/></g>
<g><path style="opacity:0.007" fill="#fefffe" d="M 357.5,309.5 C 358.167,309.5 358.833,309.5 359.5,309.5C 359.5,310.833 358.833,311.5 357.5,311.5C 357.5,310.833 357.5,310.167 357.5,309.5 Z"/></g>
<g><path style="opacity:0.007" fill="#fefffe" d="M 355.5,311.5 C 356.167,311.5 356.833,311.5 357.5,311.5C 355.5,314.167 353.167,316.5 350.5,318.5C 350.5,317.833 350.5,317.167 350.5,316.5C 351.167,316.5 351.5,316.167 351.5,315.5C 352.167,315.5 352.5,315.167 352.5,314.5C 353.167,314.5 353.5,314.167 353.5,313.5C 354.167,313.5 354.5,313.167 354.5,312.5C 355.167,312.5 355.5,312.167 355.5,311.5 Z"/></g>
<g><path style="opacity:0.004" fill="#fefffe" d="M 21.5,314.5 C 22.8333,315.167 22.8333,315.167 21.5,314.5 Z"/></g>
<g><path style="opacity:0.004" fill="#fefffe" d="M 411.5,318.5 C 412.833,319.167 412.833,319.167 411.5,318.5 Z"/></g>
<g><path style="opacity:0.018" fill="#fefffe" d="M 151.5,321.5 C 151.631,322.239 151.464,322.906 151,323.5C 150.308,322.563 150.475,321.897 151.5,321.5 Z"/></g>
<g><path style="opacity:0.007" fill="#fefffe" d="M 345.5,323.5 C 347.225,323.843 347.725,324.843 347,326.5C 345.961,325.756 345.461,324.756 345.5,323.5 Z"/></g>
<g><path style="opacity:0.004" fill="#fefffe" d="M 367.5,325.5 C 368.833,326.167 368.833,326.167 367.5,325.5 Z"/></g>
<g><path style="opacity:0.004" fill="#fefffe" d="M 59.5,326.5 C 60.8333,327.167 60.8333,327.167 59.5,326.5 Z"/></g>
<g><path style="opacity:0.013" fill="#fefffe" d="M 153.5,326.5 C 153.833,326.5 154.167,326.5 154.5,326.5C 154.167,330.5 153.833,330.5 153.5,326.5 Z"/></g>
<g><path style="opacity:0.012" fill="#fefffe" d="M 344.5,326.5 C 345.573,327.251 345.74,328.251 345,329.5C 344.517,328.552 344.351,327.552 344.5,326.5 Z"/></g>
<g><path style="opacity:0.03" fill="#f9f9fe" d="M 348.5,317.5 C 348.842,318.338 349.508,318.672 350.5,318.5C 350.741,321.999 349.908,322.332 348,319.5C 347.338,320.984 346.504,322.317 345.5,323.5C 344.596,324.209 344.263,325.209 344.5,326.5C 343.094,326.973 342.427,327.973 342.5,329.5C 341.167,330.5 341.167,331.5 342.5,332.5C 342.741,335.999 341.908,336.332 340,333.5C 339.623,334.942 338.79,335.942 337.5,336.5C 339.908,329.34 343.574,323.007 348.5,317.5 Z"/></g>
<g><path style="opacity:0.01" fill="#fefffe" d="M 342.5,329.5 C 343.833,330.5 343.833,331.5 342.5,332.5C 342.5,331.5 342.5,330.5 342.5,329.5 Z"/></g>
<g><path style="opacity:0.006" fill="#fefffe" d="M 337.5,338.5 C 339.225,338.843 339.725,339.843 339,341.5C 338.617,340.944 338.117,340.611 337.5,340.5C 337.5,339.833 337.5,339.167 337.5,338.5 Z"/></g>
<g><path style="opacity:0.004" fill="#fefffe" d="M 87.5,341.5 C 88.8333,342.167 88.8333,342.167 87.5,341.5 Z"/></g>
<g><path style="opacity:0.009" fill="#fefffe" d="M 164.5,343.5 C 164.5,344.167 164.5,344.833 164.5,345.5C 161.833,344.833 161.833,344.167 164.5,343.5 Z"/></g>
<g><path style="opacity:0.005" fill="#fefffe" d="M 334.5,343.5 C 335.167,343.5 335.833,343.5 336.5,343.5C 336.5,344.833 335.833,345.5 334.5,345.5C 334.5,344.833 334.5,344.167 334.5,343.5 Z"/></g>
<g><path style="opacity:0.004" fill="#fefffe" d="M 428.5,343.5 C 429.833,344.167 429.833,344.167 428.5,343.5 Z"/></g>
<g><path style="opacity:0.004" fill="#fefffe" d="M 474.5,344.5 C 475.833,345.167 475.833,345.167 474.5,344.5 Z"/></g>
<g><path style="opacity:0.018" fill="#fbfbfe" d="M 336.5,338.5 C 336.328,339.492 336.662,340.158 337.5,340.5C 337.737,341.791 337.404,342.791 336.5,343.5C 336.214,341.067 335.548,341.067 334.5,343.5C 333.167,344.167 333.167,344.833 334.5,345.5C 332.585,348.423 330.251,351.09 327.5,353.5C 326.818,352.757 326.151,352.091 325.5,351.5C 329.572,347.435 333.238,343.102 336.5,338.5 Z M 336.5,343.5 C 335.833,343.5 335.167,343.5 334.5,343.5C 335.548,341.067 336.214,341.067 336.5,343.5 Z"/></g>
<g><path style="opacity:0.004" fill="#fefffe" d="M 387.5,349.5 C 388.833,350.167 388.833,350.167 387.5,349.5 Z"/></g>
<g><path style="opacity:0.014" fill="#fefffe" d="M 172.5,353.5 C 173.167,353.5 173.833,353.5 174.5,353.5C 173.833,354.833 173.167,354.833 172.5,353.5 Z"/></g>
<g><path style="opacity:0.004" fill="#fefffe" d="M 144.5,356.5 C 145.833,357.167 145.833,357.167 144.5,356.5 Z"/></g>
<g><path style="opacity:0.008" fill="#fefffe" d="M 317.5,356.5 C 318.833,356.5 320.167,356.5 321.5,356.5C 321.38,357.586 320.713,358.253 319.5,358.5C 318.287,358.253 317.62,357.586 317.5,356.5 Z"/></g>
<g><path style="opacity:0.043" fill="#f9f9fe" d="M 137.5,304.5 C 142.855,307.855 147.188,312.188 150.5,317.5C 152.451,318.716 153.951,320.382 155,322.5C 158.492,330.153 162.492,337.487 167,344.5C 173.462,351.884 181.629,356.051 191.5,357C 198.603,357.282 205.603,358.282 212.5,360C 222.277,364.889 232.277,369.223 242.5,373C 248.569,373.804 254.569,373.471 260.5,372C 269.167,368 277.833,364 286.5,360C 295.757,357.902 305.09,356.235 314.5,355C 318.288,354.126 321.954,352.959 325.5,351.5C 324.77,352.712 323.77,353.712 322.5,354.5C 325.131,356.005 324.797,356.671 321.5,356.5C 320.167,355.167 318.833,355.167 317.5,356.5C 311.625,357.9 305.625,358.733 299.5,359C 303.619,359.143 307.619,359.81 311.5,361C 302.649,362.013 293.982,362.513 285.5,362.5C 282.99,362.991 280.656,363.991 278.5,365.5C 279.529,365.296 280.529,365.796 281.5,367C 278.813,368.195 276.146,368.362 273.5,367.5C 272.396,368.631 272.729,369.465 274.5,370C 273.552,370.483 272.552,370.649 271.5,370.5C 270.5,369.167 269.5,369.167 268.5,370.5C 266.176,371.656 263.843,372.656 261.5,373.5C 253.627,374.782 253.627,375.449 261.5,375.5C 253.5,375.5 245.5,375.5 237.5,375.5C 245.348,375.415 245.348,374.749 237.5,373.5C 236.5,372.167 235.5,372.167 234.5,373.5C 232.901,373.768 231.568,373.434 230.5,372.5C 234.289,372.263 234.289,371.596 230.5,370.5C 229.5,369.167 228.5,369.167 227.5,370.5C 224.203,370.671 223.869,370.005 226.5,368.5C 226.043,367.702 225.376,367.369 224.5,367.5C 223.5,366.167 222.5,366.167 221.5,367.5C 220.127,367.657 218.793,367.49 217.5,367C 217.833,366.667 218.167,366.333 218.5,366C 216.942,365.79 215.609,365.29 214.5,364.5C 205.958,364.774 205.625,363.941 213.5,362C 209.004,360.255 204.338,359.421 199.5,359.5C 196.038,358.518 192.371,358.185 188.5,358.5C 186.084,355.966 183.75,355.966 181.5,358.5C 178.986,358.246 176.652,357.413 174.5,356C 177.113,354.929 177.113,354.095 174.5,353.5C 173.833,352.167 173.167,352.167 172.5,353.5C 169.167,351.5 166.5,348.833 164.5,345.5C 165.833,344.833 165.833,344.167 164.5,343.5C 163.496,342.317 162.662,340.984 162,339.5C 160.092,342.332 159.259,341.999 159.5,338.5C 158.295,337.328 158.295,335.995 159.5,334.5C 159.333,334.167 159.167,333.833 159,333.5C 156.375,336.877 155.875,336.044 157.5,331C 157.101,329.019 156.101,327.519 154.5,326.5C 154.167,323.833 153.833,323.833 153.5,326.5C 151.073,325.721 151.073,324.554 153.5,323C 152.956,322.283 152.289,321.783 151.5,321.5C 151.225,319.158 150.392,319.158 149,321.5C 146.296,316.982 143.129,312.982 139.5,309.5C 137.856,309.19 136.856,308.19 136.5,306.5C 137.338,306.158 137.672,305.492 137.5,304.5 Z M 188.5,358.5 C 186.167,358.5 183.833,358.5 181.5,358.5C 183.75,355.966 186.084,355.966 188.5,358.5 Z M 159.5,338.5 C 159.511,335.999 160.178,335.832 161.5,338C 160.906,338.464 160.239,338.631 159.5,338.5 Z M 139.5,307.5 C 140.5,307.833 141.167,308.5 141.5,309.5C 140.833,309.5 140.167,309.5 139.5,309.5C 139.5,308.833 139.5,308.167 139.5,307.5 Z M 293.5,359.5 C 295.288,359.215 296.955,359.548 298.5,360.5C 296.235,361.647 293.902,361.814 291.5,361C 292.416,360.722 293.082,360.222 293.5,359.5 Z M 214.5,364.5 C 214.947,362.027 215.947,361.86 217.5,364C 216.552,364.483 215.552,364.649 214.5,364.5 Z"/></g>
<g><path style="opacity:0.011" fill="#fefffe" d="M 199.5,359.5 C 197.952,360.794 195.952,361.461 193.5,361.5C 191.5,361.333 189.5,361.167 187.5,361C 191.297,359.576 195.297,359.076 199.5,359.5 Z"/></g>
<g><path style="opacity:0.004" fill="#fefffe" d="M 10.5,361.5 C 11.8333,362.167 11.8333,362.167 10.5,361.5 Z"/></g>
<g><path style="opacity:0.008" fill="#fefffe" d="M 285.5,362.5 C 287.655,362.372 289.655,362.872 291.5,364C 290.5,364.167 289.5,364.333 288.5,364.5C 286.97,364.36 285.97,363.693 285.5,362.5 Z"/></g>
<g><path style="opacity:0.004" fill="#fefffe" d="M 321.5,362.5 C 322.833,363.167 322.833,363.167 321.5,362.5 Z"/></g>
<g><path style="opacity:0.004" fill="#fefffe" d="M 32.5,365.5 C 33.8333,366.167 33.8333,366.167 32.5,365.5 Z"/></g>
<g><path style="opacity:0.004" fill="#fefffe" d="M 214.5,366.5 C 215.833,367.167 215.833,367.167 214.5,366.5 Z"/></g>
<g><path style="opacity:0.014" fill="#fefffe" d="M 221.5,367.5 C 222.5,367.5 223.5,367.5 224.5,367.5C 223.5,368.833 222.5,368.833 221.5,367.5 Z"/></g>
<g><path style="opacity:0.008" fill="#fefffe" d="M 227.5,370.5 C 228.5,370.5 229.5,370.5 230.5,370.5C 230.5,371.167 230.5,371.833 230.5,372.5C 228.821,372.715 227.821,372.048 227.5,370.5 Z"/></g>
<g><path style="opacity:0.007" fill="#fefffe" d="M 268.5,370.5 C 269.5,370.5 270.5,370.5 271.5,370.5C 270.5,373.167 269.5,373.167 268.5,370.5 Z"/></g>
<g><path style="opacity:0.01" fill="#fefffe" d="M 234.5,373.5 C 235.5,373.5 236.5,373.5 237.5,373.5C 237.5,374.167 237.5,374.833 237.5,375.5C 236.127,375.657 234.793,375.49 233.5,375C 234.056,374.617 234.389,374.117 234.5,373.5 Z"/></g>
<g><path style="opacity:0.008" fill="#fefffe" d="M 261.5,373.5 C 266.833,374.167 266.833,374.833 261.5,375.5C 261.5,374.833 261.5,374.167 261.5,373.5 Z"/></g>
<g><path style="opacity:0.006" fill="#fefffe" d="M 245.5,376.5 C 249.273,376.263 252.94,376.763 256.5,378C 252.167,378.667 247.833,378.667 243.5,378C 244.416,377.722 245.082,377.222 245.5,376.5 Z"/></g>
<g><path style="opacity:0.004" fill="#fefffe" d="M 41.5,389.5 C 42.8333,390.167 42.8333,390.167 41.5,389.5 Z"/></g>
<g><path style="opacity:0.004" fill="#fefffe" d="M 301.5,392.5 C 302.833,393.167 302.833,393.167 301.5,392.5 Z"/></g>
<g><path style="opacity:0.004" fill="#fefffe" d="M 279.5,412.5 C 280.833,413.167 280.833,413.167 279.5,412.5 Z"/></g>
<g><path style="opacity:0.004" fill="#fefffe" d="M 65.5,421.5 C 66.8333,422.167 66.8333,422.167 65.5,421.5 Z"/></g>
<g><path style="opacity:0.004" fill="#fefffe" d="M 334.5,423.5 C 335.833,424.167 335.833,424.167 334.5,423.5 Z"/></g>
<g><path style="opacity:0.004" fill="#fefffe" d="M 410.5,430.5 C 411.833,431.167 411.833,431.167 410.5,430.5 Z"/></g>
<g><path style="opacity:0.004" fill="#fefffe" d="M 272.5,436.5 C 273.833,437.167 273.833,437.167 272.5,436.5 Z"/></g>
<g><path style="opacity:0.004" fill="#fefffe" d="M 485.5,443.5 C 486.833,444.167 486.833,444.167 485.5,443.5 Z"/></g>
<g><path style="opacity:0.004" fill="#fefffe" d="M 382.5,445.5 C 383.833,446.167 383.833,446.167 382.5,445.5 Z"/></g>
<g><path style="opacity:0.004" fill="#fefffe" d="M 214.5,450.5 C 215.833,451.167 215.833,451.167 214.5,450.5 Z"/></g>
<g><path style="opacity:0.004" fill="#fefffe" d="M 324.5,454.5 C 325.833,455.167 325.833,455.167 324.5,454.5 Z"/></g>
<g><path style="opacity:0.004" fill="#fefffe" d="M 419.5,466.5 C 420.833,467.167 420.833,467.167 419.5,466.5 Z"/></g>
<g><path style="opacity:0.004" fill="#fefffe" d="M 380.5,471.5 C 381.833,472.167 381.833,472.167 380.5,471.5 Z"/></g>
<g><path style="opacity:0.004" fill="#fefffe" d="M 285.5,482.5 C 286.833,483.167 286.833,483.167 285.5,482.5 Z"/></g>
<g><path style="opacity:0.004" fill="#fefffe" d="M 108.5,483.5 C 109.833,484.167 109.833,484.167 108.5,483.5 Z"/></g>
<g><path style="opacity:0.004" fill="#fefffe" d="M 185.5,487.5 C 186.833,488.167 186.833,488.167 185.5,487.5 Z"/></g>
</svg>
